Coordinates
version=1
nRows=15
nColumns=38
inDegrees=yes

Units are S.I. units (second, meters, Newtons, ...)
Angles are in degrees.

endheader
time	pelvis_tilt	pelvis_list	pelvis_rotation	pelvis_tx	pelvis_ty	pelvis_tz	hip_flexion_r	hip_adduction_r	hip_rotation_r	knee_angle_r	ankle_angle_r	subtalar_angle_r	mtp_angle_r	hip_flexion_l	hip_adduction_l	hip_rotation_l	knee_angle_l	ankle_angle_l	subtalar_angle_l	mtp_angle_l	lumbar_extension	lumbar_bending	lumbar_rotation	arm_flex_r	arm_add_r	arm_rot_r	elbow_flex_r	pro_sup_r	wrist_flex_r	wrist_dev_r	arm_flex_l	arm_add_l	arm_rot_l	elbow_flex_l	pro_sup_l	wrist_flex_l	wrist_dev_l
      1.61000000	     -2.00890539	      4.31823433	     -2.77949331	      0.32917183	      0.93861768	     -0.31269562	     10.36358938	     -6.09575604	     -4.61836471	    -60.78790900	    -29.07015733	    -14.95219407	      0.00000000	     14.30049977	      7.57161385	     -0.79868395	    -18.06565418	      4.59512848	    -13.45701970	      0.00000000	     -5.22141930	     -5.23313043	      0.86547435	      6.04895410	    -13.90613420	     28.47905743	     73.27415539	     41.38564436	      0.00000000	      0.00000000	    -13.38802693	     -8.04032393	     38.45317043	     26.34219512	     41.38564436	      0.00000000	      0.00000000
      1.62000000	     -2.11992249	      4.05119900	     -3.08066495	      0.34093363	      0.93958823	     -0.31289378	     12.20953258	     -5.66702995	     -4.15989547	    -62.51346130	    -27.66871437	    -15.33497997	      0.00000000	     13.38002592	      7.35429287	     -0.70248518	    -17.68590939	      5.25711769	    -13.58777163	      0.00000000	     -5.21447159	     -4.86137683	      0.73327129	      5.62419344	    -13.71054373	     29.03609984	     72.07539976	     41.45666274	      0.00000000	      0.00000000	    -12.48771210	     -7.90733089	     38.50109664	     26.04257370	     41.45666274	      0.00000000	      0.00000000
      1.63000000	     -2.32615549	      3.57130302	     -3.17418122	      0.35214431	      0.94054300	     -0.31298833	     14.03664855	     -4.69912323	     -3.67445704	    -63.76724400	    -25.90423164	    -16.17978241	      0.00000000	     12.62047817	      6.88382480	     -0.79971736	    -17.33620049	      5.86928605	    -13.47772530	      0.00000000	     -5.18389650	     -4.30212002	      0.16356062	      6.22879605	    -13.52716336	     31.37524911	     68.92863390	     42.00931232	      0.00000000	      0.00000000	    -11.34459625	     -7.97727281	     40.33435998	     25.18074433	     42.00931232	      0.00000000	      0.00000000
      1.64000000	     -2.34413864	      3.09969265	     -3.34594825	      0.36401049	      0.94187775	     -0.31321742	     15.61965223	     -3.86571062	     -3.21089073	    -64.73113867	    -22.65512897	    -15.97111017	      0.00000000	     11.44491570	      6.45374343	     -0.80009463	    -16.66632887	      6.38602018	    -13.42322778	      0.00000000	     -5.30141298	     -3.69109486	     -0.02999324	      5.46383696	    -13.44623053	     31.50164705	     67.92329484	     42.05337361	      0.00000000	      0.00000000	    -10.36469517	     -8.09480349	     40.43926034	     25.38974396	     42.05337361	      0.00000000	      0.00000000
      1.65000000	     -2.57449388	      2.80770005	     -3.61775374	      0.37543681	      0.94264155	     -0.31329300	     17.53508875	     -3.17151060	     -2.66895195	    -65.58461763	    -19.91042761	    -15.95057747	      0.00000000	     10.51762636	      6.17133219	     -1.03547617	    -15.93033609	      6.76317352	    -13.40652610	      0.00000000	     -5.16983197	     -3.29394568	     -0.06237564	      4.82057588	    -13.24486994	     31.65920583	     66.41137341	     42.09904466	      0.00000000	      0.00000000	     -9.26820737	     -8.31213013	     40.58045676	     25.71528071	     42.09904466	      0.00000000	      0.00000000
      1.66000000	     -2.69577683	      2.40553175	     -3.66443657	      0.38706466	      0.94365357	     -0.31369735	     19.11926199	     -2.51461874	     -2.55689907	    -65.97625068	    -17.07429901	    -15.85672167	      0.00000000	      9.47760411	      5.82665312	     -0.99965789	    -15.24848921	      7.13521754	    -13.30692098	      0.00000000	     -5.18276034	     -2.77425973	     -0.53880597	      4.92930200	    -12.58868804	     32.47907322	     62.55146612	     42.27949828	      0.00000000	      0.00000000	     -8.39077093	     -8.69521489	     41.56716205	     26.17691900	     42.27949828	      0.00000000	      0.00000000
      1.67000000	     -2.82405604	      1.96134500	     -3.62484172	      0.39869014	      0.94447036	     -0.31423996	     20.70640231	     -1.95469052	     -2.75126140	    -66.06982670	    -14.98627750	    -16.01089730	      0.00000000	      8.47302346	      5.44832118	     -0.94926103	    -14.61049944	      7.51957910	    -13.22295976	      0.00000000	     -5.20263337	     -2.18381755	     -0.88573814	      4.06062978	    -12.65947998	     32.69688016	     62.00583837	     42.29248671	      0.00000000	      0.00000000	     -7.32864710	     -8.85806690	     41.53538569	     26.37017621	     42.29248671	      0.00000000	      0.00000000
      1.68000000	     -2.82025375	      1.61545976	     -3.60866531	      0.41015009	      0.94534015	     -0.31485977	     22.08961005	     -1.64400358	     -2.97961807	    -65.97146326	    -12.32969821	    -14.82371091	      0.00000000	      7.44710384	      5.20053595	     -0.86903255	    -14.15108764	      7.77538514	    -13.32516344	      0.00000000	     -5.35940683	     -1.69825718	     -1.18365276	      4.00932281	    -12.16701704	     33.46189202	     57.84929702	     42.45296592	      0.00000000	      0.00000000	     -6.13266845	     -9.24182637	     42.35858359	     26.92784521	     42.45296592	      0.00000000	      0.00000000
      1.69000000	     -2.80447135	      1.17427577	     -3.46315540	      0.42170775	      0.94600864	     -0.31557839	     23.30797577	     -1.15928386	     -3.29732605	    -65.49425006	    -10.00550837	    -14.30153014	      0.00000000	      6.42905572	      4.85103150	     -0.69011505	    -13.77082501	      8.15351836	    -13.30493119	      0.00000000	     -5.53919384	     -1.09523927	     -1.52833741	      3.19934433	    -12.27810146	     33.82145743	     56.61230634	     42.49834398	      0.00000000	      0.00000000	     -4.90402953	     -9.45999098	     42.45895521	     27.21227832	     42.49834398	      0.00000000	      0.00000000
      1.70000000	     -2.79069809	      0.66870177	     -3.24107856	      0.43326251	      0.94657980	     -0.31618272	     24.42032783	     -0.36473011	     -3.36174593	    -64.63854182	     -7.90353289	    -14.37903146	      0.00000000	      5.46159780	      4.41745494	     -0.43568086	    -13.48784590	      8.57619069	    -13.27853048	      0.00000000	     -5.71429072	     -0.45683122	     -1.90187075	      2.41897004	    -12.22452578	     34.07058489	     54.77475086	     42.54263285	      0.00000000	      0.00000000	     -3.57764455	     -9.72334579	     42.54747092	     27.53202535	     42.54263285	      0.00000000	      0.00000000
      1.71000000	     -2.78379926	      0.27625208	     -2.96470084	      0.44481243	      0.94691546	     -0.31680802	     25.47400864	      0.19289464	     -3.58718030	    -63.54912749	     -6.07684619	    -14.06170400	      0.00000000	      4.43126724	      4.10659344	     -0.03423023	    -13.05844600	      8.67900563	    -13.56958989	      0.00000000	     -5.82901220	      0.03998288	     -2.41535931	      2.45209471	    -11.56918116	     34.94430760	     50.26609477	     42.68194075	      0.00000000	      0.00000000	     -2.40445280	    -10.22247836	     43.05933716	     28.19951419	     42.68194075	      0.00000000	      0.00000000
      1.72000000	     -2.73385117	     -0.06824154	     -2.69080317	      0.45636273	      0.94719296	     -0.31738270	     26.38049570	      0.63949353	     -3.86093111	    -62.10884959	     -4.29859861	    -13.76469764	      0.00000000	      3.33429973	      3.80498000	      0.13446408	    -12.53224728	      9.12490348	    -13.25618934	      0.00000000	     -6.01012987	      0.48559301	     -2.85691040	      2.13006059	    -11.38749779	     36.30908742	     47.14008454	     42.82632913	      0.00000000	      0.00000000	     -1.17964589	    -10.66658496	     43.26777244	     28.80856786	     42.82632913	      0.00000000	      0.00000000
      1.73000000	     -2.79850075	     -0.39057222	     -2.37973569	      0.46796269	      0.94704346	     -0.31798419	     27.34053283	      1.01556090	     -4.17794791	    -60.38336759	     -3.34410641	    -13.81004648	      0.00000000	      2.47841410	      3.53427534	      0.23705535	    -12.25662145	      9.47273023	    -13.18791801	      0.00000000	     -6.01804636	      0.91469431	     -3.24433058	      1.02455392	    -11.61052270	     36.51314884	     46.46691519	     42.83826045	      0.00000000	      0.00000000	      0.10297386	    -10.98957953	     43.11465226	     29.04109105	     42.83826045	      0.00000000	      0.00000000
      1.74000000	     -2.53838737	     -0.51533595	     -2.18718091	      0.47995905	      0.94719121	     -0.31849594	     27.79782129	      1.13703873	     -4.44752165	    -58.43202846	     -2.22670673	    -13.47041061	      0.00000000	      1.13515768	      3.47543917	      0.43658078	    -11.75238947	      9.66805570	    -13.16241565	      0.00000000	     -6.36787810	      1.10648779	     -3.53871395	      0.72459130	    -10.97447036	     37.01235014	     42.21131053	     42.93966842	      0.00000000	      0.00000000	      1.25865980	    -11.51091419	     43.04530440	     30.13846407	     42.93966842	      0.00000000	      0.00000000
      1.75000000	     -2.50901912	     -0.72025387	     -1.90170062	      0.49161444	      0.94676024	     -0.31887475	     28.32272037	      1.46940239	     -4.44884797	    -56.03366651	     -1.13046411	    -12.93225332	      0.00000000	      0.22787202	      3.30169404	      0.53538899	    -11.59443369	      9.95326426	    -13.18095663	      0.00000000	     -6.48075119	      1.37727166	     -3.75373480	     -0.41737216	    -11.17000975	     37.34588123	     41.12588880	     42.96360852	      0.00000000	      0.00000000	      2.69236217	    -11.79439760	     42.81244279	     30.60634974	     42.96360852	      0.00000000	      0.00000000
